<?xml version="1.0" encoding="utf-8"?>
<!-- Generator: Adobe Illustrator 27.3.1, SVG Export Plug-In . SVG Version: 6.00 Build 0)  -->
<svg version="1.1" id="Laag_1" xmlns="http://www.w3.org/2000/svg" xmlns:xlink="http://www.w3.org/1999/xlink" x="0px" y="0px"
	 viewBox="0 0 750.9 454.9" style="enable-background:new 0 0 750.9 454.9;" xml:space="preserve">
<style type="text/css">
	.st0{fill:none;stroke:#0087CC;stroke-width:35.44;stroke-miterlimit:10;}
	.st1{fill:none;stroke:#1D1D1B;stroke-width:35.44;stroke-miterlimit:10;}
	.st2{fill:#1D1D1B;}
</style>
<line class="st0" x1="0" y1="335.4" x2="245.1" y2="335.4"/>
<line class="st1" x1="0" y1="233.6" x2="275.2" y2="233.6"/>
<line class="st1" x1="0" y1="437.2" x2="747.2" y2="437.2"/>
<g>
	<path class="st2" d="M81.3,33.4H24.5v34h55.1v20.1H24.5v47.3h56.8v20.1H3.2V13.3h78.1L81.3,33.4L81.3,33.4z"/>
	<path class="st2" d="M159.8,80.8l-17.1,9.1c-2.7-5.5-6-8.2-10-8.2c-1.9,0-3.5,0.6-4.9,1.9c-1.3,1.2-2,2.9-2,4.8
		c0,3.4,4,6.8,11.9,10.2c10.9,4.7,18.3,9.1,22.1,13c3.8,4,5.7,9.3,5.7,16.1c0,8.6-3.2,15.8-9.5,21.6c-6.2,5.5-13.6,8.2-22.4,8.2
		c-15,0-25.6-7.3-31.8-21.9l17.6-8.2c2.4,4.3,4.3,7,5.6,8.2c2.5,2.3,5.5,3.5,9,3.5c7,0,10.4-3.2,10.4-9.5c0-3.7-2.7-7.1-8.1-10.3
		c-2.1-1-4.2-2.1-6.2-3c-2.1-1-4.2-2-6.3-3c-6-2.9-10.2-5.9-12.7-8.8c-3.1-3.7-4.7-8.5-4.7-14.4c0-7.8,2.7-14.2,8-19.3
		c5.4-5.1,12-7.6,19.8-7.6C145.7,63.1,154.2,69,159.8,80.8L159.8,80.8z"/>
	<path class="st2" d="M267.8,115.1h-64c0.6,7.3,2.9,13.2,7.1,17.5c4.2,4.3,9.6,6.4,16.2,6.4c5.1,0,9.4-1.2,12.8-3.7
		c3.3-2.4,7.1-7,11.3-13.6l17.4,9.7c-2.7,4.6-5.5,8.5-8.5,11.8s-6.2,6-9.6,8.1c-3.4,2.1-7.1,3.6-11.1,4.6c-4,1-8.3,1.5-12.9,1.5
		c-13.3,0-24-4.3-32.1-12.8c-8.1-8.6-12.1-20.1-12.1-34.3S186.2,84.8,194,76c7.9-8.6,18.3-12.9,31.4-12.9s23.5,4.2,31.2,12.6
		c7.6,8.3,11.4,19.8,11.4,34.6L267.8,115.1L267.8,115.1z M246.7,98.2c-2.9-11-9.8-16.5-20.8-16.5c-2.5,0-4.9,0.4-7.1,1.2
		c-2.2,0.8-4.2,1.9-6,3.3c-1.8,1.4-3.4,3.2-4.6,5.2s-2.3,4.3-2.9,6.9H246.7z"/>
	<path class="st2" d="M292.8,65.6h20.7v8.2c7.2-7.2,15.4-10.7,24.4-10.7c10.4,0,18.5,3.3,24.3,9.8c5,5.6,7.5,14.6,7.5,27.2v54.8
		h-20.7V105c0-8.8-1.2-14.9-3.7-18.2c-2.4-3.4-6.7-5.1-13-5.1c-6.9,0-11.7,2.3-14.6,6.8c-2.8,4.5-4.2,12.3-4.2,23.4v43.1h-20.7
		L292.8,65.6L292.8,65.6z"/>
	<path class="st2" d="M464.1,0h20.7v154.9h-20.7v-9.4c-8.1,7.9-17.3,11.9-27.6,11.9c-12.2,0-22.4-4.5-30.5-13.4
		c-8-9.1-12-20.5-12-34.1s4-24.4,12-33.4c8-9,17.9-13.5,30-13.5c10.5,0,19.8,4.3,28.1,12.8L464.1,0L464.1,0z M415.1,110
		c0,8.6,2.3,15.5,6.9,20.9c4.7,5.4,10.6,8.2,17.8,8.2c7.6,0,13.8-2.6,18.5-7.9c4.7-5.4,7.1-12.3,7.1-20.7s-2.4-15.3-7.1-20.7
		c-4.7-5.3-10.8-8-18.3-8c-7.1,0-13,2.7-17.8,8.1C417.5,95.2,415.2,101.9,415.1,110L415.1,110z"/>
	<path class="st2" d="M579.2,65.6h20.7v89.3h-20.7v-9.4c-8.5,7.9-17.6,11.9-27.4,11.9c-12.3,0-22.6-4.5-30.6-13.4
		c-8-9.1-12-20.5-12-34.1s4-24.6,12-33.5c8-8.9,18-13.4,30.1-13.4c10.4,0,19.7,4.3,28,12.8C579.2,75.9,579.2,65.6,579.2,65.6z
		 M530.2,110c0,8.6,2.3,15.5,6.9,20.9c4.7,5.4,10.6,8.2,17.8,8.2c7.6,0,13.8-2.6,18.5-7.9c4.7-5.4,7.1-12.3,7.1-20.7
		s-2.3-15.3-7.1-20.7c-4.7-5.3-10.8-8-18.3-8c-7.1,0-13,2.7-17.8,8.1C532.6,95.2,530.2,101.9,530.2,110L530.2,110z"/>
	<path class="st2" d="M628.4,65.6H649v8.2c4-4.2,7.4-7,10.2-8.4c3-1.5,6.8-2.3,11.3-2.3c10.1,0,18.1,4.4,23.9,13.2
		c6.5-8.8,15.2-13.2,26.3-13.2c20.1,0,30.2,12.2,30.2,36.6v55.2h-20.7v-49.6c0-8.6-1-14.6-3.1-18.2c-2.1-3.6-5.7-5.4-10.5-5.4
		c-5.7,0-9.8,2.1-12.4,6.4s-3.9,11.2-3.9,20.6v46.1h-20.7v-49.3c0-15.9-4.6-23.8-13.8-23.8c-5.8,0-10,2.2-12.7,6.5
		c-2.7,4.3-4,11.2-4,20.5v46.1h-20.6L628.4,65.6L628.4,65.6z"/>
</g>
<g>
	<path class="st2" d="M304.4,316.9c-1.1-2.7-3.5-4.8-6.6-4.8s-5.7,1.7-5.7,5.3c0,3.4,2.3,4.4,7.6,6.7c6.8,2.8,10,5,11.8,7.3
		c2,2.5,2.5,5,2.5,7.6c0,9.9-7.1,15.4-16.2,15.4c-1.9,0-12.5-0.2-16.4-12l7-3c0.9,2.5,3.6,7.7,9.5,7.7c5.3,0,7.7-4,7.7-7.5
		c0-4.4-3.2-5.9-7.6-7.8c-5.7-2.5-9.3-4.3-11.5-6.9c-1.8-2.3-2.1-4.5-2.1-6.9c0-8.3,5.8-13.1,13.7-13.1c2.5,0,9.2,0.5,12.9,8.5
		L304.4,316.9L304.4,316.9z"/>
	<path class="st2" d="M335.5,329.7c0-14.3,10.5-24.8,25-24.8s25,10.5,25,24.8s-10.7,24.7-25,24.7S335.5,344,335.5,329.7z
		 M343.9,329.7c0,11.6,8.2,17.5,16.6,17.5s16.6-6,16.6-17.5s-7.9-17.6-16.6-17.6S343.9,318.3,343.9,329.7z"/>
	<path class="st2" d="M419.9,313.5v39.6h-8.2v-39.6h-4.5V306h4.5v-20.5c0-4.3,0.3-9.8,4.5-13.3c2.3-1.9,5.7-3.1,9.4-3.1
		c3,0,4.9,0.7,5.8,1v7.9c-1.7-0.7-3.6-1-5.3-1c-1.8,0-4,0.5-5.2,2.5c-1,1.7-1,4.3-1,6.8V306h11.6v7.5H419.9L419.9,313.5z"/>
	<path class="st2" d="M463,313.5v39.6h-8.2v-39.6h-5V306h5v-17h8.2v17h8.2v7.5H463z"/>
	<path class="st2" d="M498.3,306l13.9,32l14.7-35.6l14.6,35.6l14.1-32h9.1l-23.4,50.4l-14.5-35.2l-14.5,35.2L489.2,306H498.3
		L498.3,306z"/>
	<path class="st2" d="M623,306h8.2v47.1H623v-6.6c-2.7,3.5-7.8,7.9-16.1,7.9c-11.9,0-22.9-8.4-22.9-25s10.9-24.6,22.9-24.6
		c9.1,0,14,5,16.1,7.8V306z M592.4,329.5c0,10.1,5.7,17.7,15.4,17.7s15.7-8.3,15.7-17.6c0-12.1-8.4-17.5-15.7-17.5
		C599.8,312.1,592.4,318,592.4,329.5L592.4,329.5z"/>
	<path class="st2" d="M660.2,306h8.2v5.1c0.8-1.2,4.3-6.2,10.7-6.2c2.5,0,5.2,0.9,7.3,1.9l-3.9,7.4c-1.8-1.2-3.5-1.6-4.8-1.6
		c-3.3,0-5.3,1.4-6.6,3c-1.4,1.8-2.7,5-2.7,12.7v24.8h-8.2V306L660.2,306z"/>
	<path class="st2" d="M746.4,341.1c-1.4,2.6-3.4,5.4-5.8,7.6c-4.3,3.9-9.6,5.8-15.7,5.8c-11.3,0-23.2-7.1-23.2-24.6
		c0-14.1,8.6-25,22.8-25c9.2,0,15,4.5,17.8,8.6c3,4.2,4.7,11.5,4.4,17.7h-36.6c0.1,9.8,6.8,16,15,16c3.9,0,6.9-1.1,9.6-3.4
		c2.2-1.8,3.9-4.2,4.9-6.5L746.4,341.1L746.4,341.1z M738.3,324.4c-1.4-7.4-6.9-12.2-13.8-12.2s-12.6,5.2-13.8,12.2H738.3
		L738.3,324.4z"/>
</g>
</svg>
